<svg xmlns="http://www.w3.org/2000/svg" viewBox="0 0 32 32" width="32" height="32">
  <defs>
    <!-- Degradado de marca cian/azul para el fondo -->
    <linearGradient id="brand-grad" x1="0%" y1="0%" x2="100%" y2="100%">
      <stop offset="0%" stop-color="#38bdf8" />
      <stop offset="100%" stop-color="#0284c7" />
    </linearGradient>
  </defs>
  <!-- Contenedor redondeado como el del logo principal -->
  <rect x="0" y="0" width="32" height="32" rx="9" fill="url(#brand-grad)" />
  <!-- Copo de nieve estilo Lucide Snowflake en blanco -->
  <g transform="translate(4, 4)" stroke="#ffffff" stroke-width="2" stroke-linecap="round" stroke-linejoin="round" fill="none">
    <line x1="2" x2="22" y1="12" y2="12" />
    <line x1="12" x2="12" y1="2" y2="22" />
    <path d="m20 16-4-4 4-4" />
    <path d="m4 8 4 4-4 4" />
    <path d="m16 4-4 4-4-4" />
    <path d="m8 20 4-4 4 4" />
    <line x1="19" x2="5" y1="5" y2="19" />
    <line x1="19" x2="5" y1="19" y2="5" />
    <path d="m19 14-3-3 3-3" />
    <path d="m5 10 3 3-3 3" />
    <path d="m14 19-3-3-3 3" />
    <path d="m10 5 3 3 3-3" />
  </g>
</svg>
